<?xml version="1.0" encoding="iso-8859-1"?>
<!-- Generator: Adobe Illustrator 19.0.0, SVG Export Plug-In . SVG Version: 6.00 Build 0)  -->
<svg version="1.1" id="Layer_1" xmlns="http://www.w3.org/2000/svg" xmlns:xlink="http://www.w3.org/1999/xlink" x="0px" y="0px"
	 viewBox="0 0 512.006 512.006" style="enable-background:new 0 0 512.006 512.006;" xml:space="preserve">
<path style="fill:#424242;" d="M442.996,267.512h-84.397v34.452h84.397c9.514,0,17.225-7.712,17.225-17.225
	S452.51,267.512,442.996,267.512z"/>
<path style="fill:#333333;" d="M347.539,481.059H143.919c-10.222,0-18.508-8.286-18.508-18.508s8.286-18.508,18.508-18.508h203.619
	V481.059z"/>
<polygon style="opacity:0.1;enable-background:new    ;" points="299.204,481.059 347.539,481.059 347.539,444.043 289.463,444.043 
	"/>
<g>
	<path style="fill:#333333;" d="M353.541,512c-8.204,0-15.7-5.496-17.886-13.802l-41.301-156.943
		c-2.602-9.886,3.303-20.007,13.188-22.609c9.894-2.599,20.007,3.305,22.609,13.188l41.301,156.943
		c2.602,9.886-3.303,20.007-13.188,22.609C356.685,511.802,355.1,512,353.541,512z"/>
	<path style="fill:#333333;" d="M168.74,449.038l28.364-107.782c2.602-9.886-3.303-20.007-13.188-22.609
		c-9.894-2.599-20.007,3.305-22.609,13.188l-27.78,105.562L168.74,449.038z"/>
</g>
<circle style="fill:#424242;" cx="148.494" cy="462.554" r="49.452"/>
<circle style="fill:#9FACB3;" cx="148.494" cy="462.554" r="21.089"/>
<path style="opacity:0.1;enable-background:new    ;" d="M437.147,267.512h-78.548v34.452h69.161
	C432.185,291.05,435.374,279.509,437.147,267.512z"/>
<path style="fill:#E6643C;" d="M78.419,218.683v26.634l0,0c0,69.293,56.173,125.466,125.466,125.466h83.689
	c69.293,0,125.466-56.173,125.466-125.466l0,0v-26.634H78.419z"/>
<path style="opacity:0.1;enable-background:new    ;" d="M119.604,245.317L119.604,245.317v-26.634H78.419v26.634l0,0
	c0,69.293,56.173,125.466,125.466,125.466h41.185C175.776,370.783,119.604,314.61,119.604,245.317z"/>
<g>
	<path style="fill:#9FACB3;" d="M242.56,173.369c-2.939,0-5.747-1.687-7.038-4.538c-10.518-23.217-10.518-49.848,0-73.063
		c8.683-19.166,8.683-41.151,0-60.317c-1.76-3.885-0.037-8.46,3.848-10.221c3.886-1.76,8.461-0.037,10.221,3.848
		c10.519,23.217,10.519,49.847,0,73.063c-8.683,19.166-8.683,41.152,0,60.318c1.76,3.885,0.037,8.46-3.848,10.221
		C244.709,173.148,243.626,173.369,242.56,173.369z"/>
	<path style="fill:#9FACB3;" d="M177.544,141.642c-2.939,0-5.747-1.687-7.038-4.538c-10.517-23.217-10.517-49.848,0-73.063
		c7.728-17.06,8.578-36.354,2.548-53.904c-1.281-3.729,0.553-7.818,4.144-9.445l0,0c4.144-1.878,9.019,0.214,10.493,4.518
		c7.27,21.236,6.231,44.569-3.118,65.204c-8.644,19.081-8.683,40.955-0.116,60.06c1.648,3.677,0.437,8.133-3.061,10.134
		C180.168,141.312,178.843,141.642,177.544,141.642z"/>
	<path style="fill:#9FACB3;" d="M313.923,141.642c-2.939,0-5.747-1.687-7.038-4.538c-10.518-23.217-10.518-49.848,0-73.063
		c7.728-17.06,8.578-36.354,2.548-53.904c-1.281-3.729,0.553-7.818,4.144-9.445l0,0c4.144-1.878,9.019,0.214,10.493,4.518
		c7.27,21.236,6.231,44.569-3.118,65.204c-8.644,19.081-8.683,40.955-0.116,60.06c1.648,3.677,0.437,8.133-3.061,10.134
		C316.545,141.312,315.221,141.642,313.923,141.642z"/>
</g>
<path style="fill:#424242;" d="M413.04,192.048H78.419c-14.71,0-26.634,11.925-26.634,26.634l0,0
	c0,14.71,11.925,26.634,26.634,26.634h334.62c14.71,0,26.634-11.925,26.634-26.634l0,0
	C439.674,203.973,427.749,192.048,413.04,192.048z"/>
<path style="opacity:0.1;enable-background:new    ;" d="M92.969,218.683L92.969,218.683c0-14.71,11.925-26.634,26.634-26.634
	H78.418c-14.71,0-26.634,11.925-26.634,26.634l0,0c0,14.71,11.925,26.634,26.634,26.634h41.185
	C104.894,245.317,92.969,233.392,92.969,218.683z"/>
<g>
</g>
<g>
</g>
<g>
</g>
<g>
</g>
<g>
</g>
<g>
</g>
<g>
</g>
<g>
</g>
<g>
</g>
<g>
</g>
<g>
</g>
<g>
</g>
<g>
</g>
<g>
</g>
<g>
</g>
</svg>
