<?xml version="1.0" encoding="iso-8859-1"?>
<!-- Generator: Adobe Illustrator 18.0.0, SVG Export Plug-In . SVG Version: 6.00 Build 0)  -->
<!DOCTYPE svg PUBLIC "-//W3C//DTD SVG 1.1//EN" "http://www.w3.org/Graphics/SVG/1.1/DTD/svg11.dtd">
<svg version="1.1" id="Capa_1" xmlns="http://www.w3.org/2000/svg" xmlns:xlink="http://www.w3.org/1999/xlink" x="0px" y="0px"
	 viewBox="0 0 458.64 458.64" style="enable-background:new 0 0 458.64 458.64;" xml:space="preserve">
<g>
	<path d="M34.329,0v458.64H424.31V0H34.329z M159.323,443.64H49.329V15h109.994V443.64z M284.317,443.64H174.323V15h109.994V443.64z
		 M409.31,443.64H299.317V15H409.31V443.64z"/>
	<rect x="76.158" y="56.335" width="56.335" height="15"/>
	<rect x="76.158" y="83.622" width="56.335" height="15"/>
	<rect x="76.158" y="110.91" width="56.335" height="15"/>
	<rect x="201.152" y="56.335" width="56.335" height="15"/>
	<rect x="201.152" y="83.622" width="56.335" height="15"/>
	<rect x="201.152" y="110.91" width="56.335" height="15"/>
	<rect x="326.146" y="56.335" width="56.335" height="15"/>
	<rect x="326.146" y="83.622" width="56.335" height="15"/>
	<rect x="326.146" y="110.91" width="56.335" height="15"/>
	<rect x="68.658" y="218.757" width="15" height="15.845"/>
	<rect x="193.652" y="218.757" width="15" height="15.845"/>
	<rect x="318.646" y="218.757" width="15" height="15.845"/>
</g>
<g>
</g>
<g>
</g>
<g>
</g>
<g>
</g>
<g>
</g>
<g>
</g>
<g>
</g>
<g>
</g>
<g>
</g>
<g>
</g>
<g>
</g>
<g>
</g>
<g>
</g>
<g>
</g>
<g>
</g>
</svg>
